PathFileType	4	(X/Y/Z)	D:\Share\Shared_Data\Ergonomics\Sit To Stand Pertubation\S0\Perturbed STS.trc
DataRate	CameraRate	NumFrames	NumMarkers	Units	OrigDataRate	OrigDataStartFrame	OrigNumFrames	
100	100	16	18	m	100	7927	211
Frame#	Time	R_Heel			R_ASIS			R_Pelvis			V_Sacral			L_Pelvis			L_ASIS			Clavical			R_Acromium			L_Acromium			Sternum			Torso			R_Thigh_Med			R_Thigh_Lat			R_Thigh			R_Shank_Med			R_Shank_Lat			R_Shank			R_Toe			
		X1	Y1	Z1	X2	Y2	Z2	X3	Y3	Z3	X4	Y4	Z4	X5	Y5	Z5	X6	Y6	Z6	X7	Y7	Z7	X8	Y8	Z8	X9	Y9	Z9	X10	Y10	Z10	X11	Y11	Z11	X12	Y12	Z12	X13	Y13	Z13	X14	Y14	Z14	X15	Y15	Z15	X16	Y16	Z16	X17	Y17	Z17	X18	Y18	Z18	

7927	35.61	0.18394702	0.039273365	0.13101302	0.28169754	0.97308344	0.13972142	0.16400751	1.011449	0.18373935	0.040493092	1.0333861	-0.044750122	0.1819702	0.99905475	-0.2254015	0.29174521	0.95727167	-0.17340428	0.41207339	1.3819678	-0.026117977	0.34989441	1.4726235	0.10688838	0.35290063	1.4735032	-0.17727826	0.4195896	1.2863845	-0.04477195	0.40667929	1.3372448	-0.15029128	0.31902463	0.49412527	0.033778427	0.3110433	0.51698126	0.1630074	0.3621564	0.66033722	0.09823111	0.28110693	0.10060858	0.083871109	0.22442674	0.085875656	0.17419905	0.2668316	0.31572455	0.18472827	0.40741467	0.053503586	0.12126357
7928	35.62	0.18412045	0.039417122	0.131028	0.28531979	0.97508899	0.13994191	0.16705081	1.0123815	0.18379559	0.043646782	1.0335222	-0.044723137	0.18533354	0.99993768	-0.22526628	0.29558328	0.95924213	-0.17338071	0.41092242	1.3858999	-0.026419613	0.34736118	1.475209	0.1070917	0.35059808	1.4764644	-0.17759007	0.4198548	1.2901921	-0.044751328	0.40599603	1.3408198	-0.1504696	0.31906198	0.4940676	0.033382156	0.31118277	0.51705579	0.16251137	0.36345639	0.65992847	0.097725357	0.28141904	0.10051833	0.083897179	0.2245524	0.085899834	0.17415114	0.26666711	0.31581577	0.18443642	0.40802078	0.05295541	0.12163503
7929	35.63	0.18429124	0.039555813	0.131035	0.28891232	0.97699347	0.14018828	0.17006616	1.0132301	0.18384979	0.046771389	1.0335942	-0.044694176	0.1886584	1.0007474	-0.22513039	0.29939276	0.96112823	-0.17336636	0.40974286	1.3896715	-0.026725077	0.34484882	1.4776262	0.10729435	0.34832364	1.4792449	-0.1778987	0.42007205	1.2938401	-0.04469598	0.4053226	1.3442223	-0.15059642	0.31913922	0.49400763	0.032997295	0.31135013	0.51712738	0.16201588	0.36474539	0.65951624	0.097230461	0.28171396	0.10043155	0.083908882	0.22467427	0.0859282	0.17408955	0.26651385	0.31590463	0.18414655	0.40861292	0.052409206	0.12197321
7930	35.64	0.18446013	0.039691322	0.13102895	0.2924613	0.97879712	0.14045459	0.17305241	1.0140007	0.18390329	0.049864853	1.0336112	-0.044661316	0.19194214	1.0014891	-0.22499034	0.30316553	0.96293036	-0.17336423	0.40854309	1.3932809	-0.027028934	0.34236743	1.4798823	0.10749526	0.3460806	1.4818501	-0.17819925	0.42024316	1.2973303	-0.044605244	0.40466736	1.3474602	-0.15067175	0.31924344	0.49394843	0.03262088	0.31153558	0.51719781	0.16151955	0.36602493	0.6591026	0.096755821	0.28198837	0.10034901	0.083901688	0.22479445	0.085962776	0.17400742	0.26636716	0.31599225	0.18385791	0.40918628	0.051864799	0.12227106
7931	35.65	0.1846299	0.039827633	0.13100542	0.29595273	0.98049988	0.14073225	0.17600787	1.0147011	0.18395741	0.05292532	1.0335818	-0.044622417	0.19518307	1.0021667	-0.22484285	0.30689322	0.96464874	-0.17337485	0.40734103	1.3967262	-0.027321491	0.33992654	1.481986	0.10769335	0.34387262	1.4842872	-0.17848586	0.42037442	1.3006671	-0.044480667	0.40403851	1.350542	-0.15069737	0.31935715	0.49389349	0.032246178	0.31172879	0.51726868	0.16101942	0.36729266	0.65868964	0.096304794	0.28224551	0.10027068	0.083870918	0.224916	0.086005524	0.17389854	0.26622327	0.31608054	0.18356932	0.40974146	0.051321667	0.12252538
7932	35.66	0.18480316	0.039968773	0.13096162	0.29937308	0.98209912	0.14101057	0.17893007	1.0153411	0.18401323	0.055950417	1.0335138	-0.044575508	0.19838084	1.0027831	-0.22468486	0.31056421	0.96628125	-0.17339622	0.40616043	1.4000067	-0.027588785	0.33753442	1.4839457	0.107888	0.34170352	1.4865649	-0.17875293	0.42047626	1.3038558	-0.044325962	0.40344339	1.3534775	-0.15067746	0.31945972	0.49384631	0.031864475	0.31191962	0.5173421	0.16051219	0.36854071	0.65827814	0.095873329	0.28249033	0.1001957	0.083812836	0.22504109	0.086057724	0.17375914	0.26608109	0.31617212	0.18327921	0.41028036	0.050782028	0.12273468
7933	35.67	0.18498019	0.040116474	0.13089735	0.30271136	0.98359167	0.14127812	0.18181636	1.0159302	0.18407117	0.058937042	1.0334136	-0.044519241	0.20153589	1.0033407	-0.22451407	0.31416107	0.96782288	-0.1734248	0.40502631	1.4031218	-0.027813978	0.33519885	1.4857716	0.10807929	0.33957788	1.4886937	-0.17899596	0.42056195	1.3069027	-0.044146954	0.40288663	1.3562762	-0.15061906	0.31952896	0.49380975	0.031467234	0.31209906	0.51742017	0.15999498	0.36975888	0.65786847	0.095450325	0.28272513	0.10012359	0.083726364	0.22516949	0.086119728	0.17358919	0.26594226	0.31626886	0.18298579	0.41080054	0.050254585	0.12289756
7934	35.68	0.18515787	0.040268745	0.13081552	0.30596014	0.98497723	0.14152553	0.18466426	1.0164778	0.1841304	0.061881741	1.0332839	-0.044453182	0.20464717	1.0038425	-0.22433061	0.31766595	0.96926874	-0.17345697	0.40396024	1.4060721	-0.027980288	0.33292719	1.4874745	0.10826801	0.33750052	1.4906851	-0.17921201	0.42064395	1.3098148	-0.043951271	0.40236942	1.3589482	-0.15053192	0.31954407	0.49378604	0.03104821	0.31226025	0.517505	0.15946667	0.37093814	0.65746008	0.095019974	0.28294772	0.10005554	0.083614281	0.22529768	0.08619088	0.17339366	0.26580875	0.31637152	0.18268875	0.41129166	0.049756027	0.12301204
7935	35.69	0.18532942	0.040420212	0.13072214	0.30911533	0.98626233	0.14174789	0.18747171	1.0169916	0.18418901	0.064781281	1.0331261	-0.044378212	0.20770961	1.0042919	-0.22413882	0.32106622	0.97061664	-0.17348985	0.40297601	1.4088613	-0.028075119	0.33072708	1.489066	0.10845558	0.33547598	1.4925505	-0.17939951	0.42073004	1.3125986	-0.043747581	0.40188989	1.3615015	-0.15042714	0.31948914	0.49377695	0.030605589	0.31239917	0.51759796	0.15892937	0.37207254	0.65705273	0.094565086	0.28315137	0.099994759	0.083483704	0.22541936	0.086269562	0.17318243	0.26568051	0.31648044	0.18239085	0.41173642	0.049307289	0.12307674
7936	35.7	0.18548634	0.040563828	0.13062532	0.31217734	0.98746155	0.14194511	0.19023648	1.0174767	0.18424417	0.067632561	1.0329398	-0.044297085	0.21071529	1.0046933	-0.22394609	0.32435428	0.97186682	-0.17352136	0.40207584	1.4114955	-0.028094282	0.32860632	1.4905583	0.10864375	0.33350848	1.4942994	-0.17955771	0.42082239	1.3152601	-0.043544003	0.40144373	1.3639435	-0.15031488	0.31935626	0.49378342	0.030143402	0.31251477	0.51769971	0.15838927	0.37316031	0.65664667	0.094070572	0.28332672	0.09994545	0.083345154	0.22552704	0.086353195	0.1729688	0.26555316	0.31659579	0.18209874	0.41211737	0.048926086	0.12309385
7937	35.71	0.18562105	0.040692841	0.13053384	0.31515421	0.98859485	0.14212004	0.19295518	1.0179361	0.18429221	0.07043251	1.0327244	-0.044214531	0.21365649	1.0050511	-0.22376033	0.32752649	0.97302173	-0.17354996	0.40124866	1.4139823	-0.028044121	0.32657324	1.491963	0.10883448	0.33160165	1.4959393	-0.17968611	0.42091867	1.3178051	-0.043346474	0.40102527	1.3662799	-0.15020216	0.31914658	0.49380453	0.029671715	0.31260709	0.51780951	0.15785646	0.37420374	0.65624438	0.093526642	0.28346524	0.099911232	0.083210724	0.22561427	0.086438171	0.17276723	0.26541776	0.31671768	0.18182201	0.41242349	0.048621056	0.12307127
7938	35.72	0.1857291	0.040802578	0.13045555	0.31806021	0.98968195	0.14227623	0.19562297	1.0183705	0.18432889	0.073178116	1.0324808	-0.044136646	0.21652785	1.00537	-0.22358745	0.33058267	0.97408521	-0.17357486	0.40047375	1.4163291	-0.027939487	0.32463528	1.4932893	0.10902981	0.32975797	1.497476	-0.17978413	0.42101511	1.3202378	-0.043158104	0.40062805	1.3685153	-0.15009196	0.3188681	0.49383774	0.029205698	0.31267474	0.51792578	0.15734309	0.37520743	0.65585077	0.092931923	0.28356204	0.099893951	0.083091789	0.22567706	0.086520195	0.17259055	0.26526376	0.3168454	0.18157103	0.41265381	0.048390556	0.12302203
7939	35.73	0.18581029	0.040891754	0.13039642	0.32091125	0.99073877	0.14241692	0.19823422	1.0187788	0.18435005	0.075866692	1.0322104	-0.044069477	0.21932605	1.0056533	-0.22343073	0.3335267	0.97506256	-0.17359685	0.39972888	1.4185425	-0.027797937	0.32279791	1.4945439	0.10923156	0.32797864	1.4989135	-0.1798511	0.42110849	1.3225616	-0.042979752	0.4002457	1.3706516	-0.14998427	0.31853259	0.49387854	0.028763451	0.31271359	0.51804675	0.15686092	0.37617368	0.65547046	0.092296158	0.28361685	0.099893417	0.082997177	0.22571442	0.086595222	0.17244737	0.26508231	0.31697681	0.18135492	0.41281647	0.048224747	0.12296121
7940	35.74	0.18586845	0.040962635	0.13035982	0.32371695	0.99177557	0.14254512	0.20078391	1.0191593	0.18435271	0.07849572	1.0319159	-0.044017353	0.22204976	1.0059034	-0.22329088	0.33636618	0.97596082	-0.17361804	0.3989989	1.4206268	-0.027633959	0.32106329	1.4957297	0.10944102	0.32626315	1.5002546	-0.17988658	0.42119662	1.3247789	-0.042810951	0.39987216	1.3726897	-0.14987767	0.31815152	0.49392133	0.02836252	0.31271695	0.51817126	0.15641953	0.37709726	0.6551051	0.091640907	0.28363422	0.099908142	0.082932251	0.22572841	0.086660263	0.17234085	0.26486862	0.31710928	0.18117978	0.41292545	0.048108757	0.12290258
7941	35.75	0.18591022	0.041020123	0.13034628	0.32647327	0.99279596	0.14266379	0.20326814	1.01951	0.18433592	0.081062057	1.0316011	-0.043981632	0.22469978	1.0061218	-0.22316643	0.339112	0.97678845	-0.17364125	0.3982782	1.4225863	-0.027457001	0.31943011	1.4968472	0.10965861	0.32460883	1.5015022	-0.17989084	0.4212782	1.3268904	-0.04265052	0.39950247	1.3746299	-0.14977043	0.31773343	0.49396085	0.028016403	0.31267664	0.51829919	0.1560251	0.37796539	0.65475177	0.090996262	0.28362238	0.09993602	0.08289875	0.2257233	0.086713768	0.17226941	0.26462234	0.3172406	0.181048	0.41299722	0.048025875	0.12285647
7942	35.76	0.18594254	0.041069675	0.13035396	0.32916406	0.99379767	0.14277612	0.20568443	1.0198295	0.18430157	0.08356263	1.0312711	-0.043960636	0.22727936	1.0063094	-0.22305417	0.34177625	0.97755414	-0.17366801	0.39756723	1.4244264	-0.027273191	0.31789386	1.4978954	0.10988393	0.32301132	1.5026593	-0.17986543	0.42135147	1.3288964	-0.042497131	0.39913312	1.3764714	-0.14966185	0.31728262	0.49399402	0.027732466	0.31258386	0.51843115	0.15568002	0.37876419	0.65440558	0.09039357	0.28359085	0.099974968	0.082895256	0.22570383	0.086755478	0.17222806	0.26434576	0.31736963	0.18095833	0.41304688	0.047960567	0.12282923
